inDegrees=no
num_controls=7
num_derivatives=13
num_iterations=118
num_multipliers=7
num_parameters=0
num_slacks=7
num_states=26
objective=5.826420
objective_accelerations=0.313796
objective_balance=0.043665
objective_effort=0.390121
objective_height=4.991004
objective_ligament=0.087834
solver_duration=1016.084262
status=Solve_Succeeded
success=true
DataType=double
version=3
OpenSimVersion=4.4-2022-07-23-0e9fedc
endheader
time	/jointset/ground_pelvis/pelvis_tilt/value	/jointset/ground_pelvis/pelvis_tx/value	/jointset/ground_pelvis/pelvis_ty/value	/jointset/hip_r/hip_flexion_r/value	/jointset/hip_r/hip_adduction_r/value	/jointset/hip_r/hip_rotation_r/value	/jointset/back/lumbar_extension/value	/jointset/patellofemoral_r/patellar_flexion_r/value	/jointset/knee_r/knee_flexion_r/value	/jointset/knee_r/knee_adduction_r/value	/jointset/knee_r/knee_rotation_r/value	/jointset/ankle_r/ankle_angle_r/value	/jointset/subtalar_r/subtalar_angle_r/value	/jointset/ground_pelvis/pelvis_tilt/speed	/jointset/ground_pelvis/pelvis_tx/speed	/jointset/ground_pelvis/pelvis_ty/speed	/jointset/hip_r/hip_flexion_r/speed	/jointset/hip_r/hip_adduction_r/speed	/jointset/hip_r/hip_rotation_r/speed	/jointset/back/lumbar_extension/speed	/jointset/patellofemoral_r/patellar_flexion_r/speed	/jointset/knee_r/knee_flexion_r/speed	/jointset/knee_r/knee_adduction_r/speed	/jointset/knee_r/knee_rotation_r/speed	/jointset/ankle_r/ankle_angle_r/speed	/jointset/subtalar_r/subtalar_angle_r/speed	/forceset/tau_hip_flexion_r	/forceset/tau_hip_adduction_r	/forceset/tau_hip_rotation_r	/forceset/tau_knee_flexion_r	/forceset/tau_ankle_angle_r	/forceset/tau_subtalar_angle_r	/forceset/tau_lumbar_extension	lambda_cid13_p0	lambda_cid14_p0	lambda_cid14_p1	lambda_cid14_p2	lambda_cid14_p3	lambda_cid14_p4	lambda_cid14_p5	/jointset/ground_pelvis/pelvis_tilt/accel	/jointset/ground_pelvis/pelvis_tx/accel	/jointset/ground_pelvis/pelvis_ty/accel	/jointset/hip_r/hip_flexion_r/accel	/jointset/hip_r/hip_adduction_r/accel	/jointset/hip_r/hip_rotation_r/accel	/jointset/back/lumbar_extension/accel	/jointset/patellofemoral_r/patellar_flexion_r/accel	/jointset/knee_r/knee_flexion_r/accel	/jointset/knee_r/knee_adduction_r/accel	/jointset/knee_r/knee_rotation_r/accel	/jointset/ankle_r/ankle_angle_r/accel	/jointset/subtalar_r/subtalar_angle_r/accel	gamma_cid13_p0	gamma_cid14_p0	gamma_cid14_p1	gamma_cid14_p2	gamma_cid14_p3	gamma_cid14_p4	gamma_cid14_p5
1	-0.1166340705486366	0.06412773387852613	0.7900848628571288	0.9118427822572969	-0.2322584061914208	-0.1009618557945155	-0.4361532079994327	1.039505797470911	1.039505797471416	-0.03040467234971077	0.1745296516917898	0.4363113040916436	0.1114341966109448	-0.00116092867597453	0.006703191959918935	0.01254747403980333	-0.03911201371809545	0.002654523482805936	-0.01151860661138586	0.01561943000048177	-0.04922742196815073	-0.04922742196814716	-0.0006169065612299275	-0.0001237045666648444	-0.00996354909312392	0.00080468002055248	-0.155312888340517	0.02870871716077877	0.01353563963216985	-0.4190375445443326	-0.06179184606661638	0.004720425354989769	0.2166625612099388	-9.491225245764365	-66.33510278354488	-9.119744662659556	1.405641634511597	18.86236272854882	-760.9241657902842	55.518585561584	0.6528653339985447	0.04061348334095093	1.033705007675705	-3.272227601169215	0.1221661634932099	-0.4344974790980803	0.7077325154587456	-4.00572100055084	-4.005721000550894	0.5756039374368213	-0.005166794525736746	-1.568418648229871	-0.4114105030216004	1.112055550857448e-09	-1.806757388950059e-09	-1.171048633080146e-09	7.470400588430331e-09	5.107125235075117e-09	-4.756647286139114e-09	-1.94794091665373e-09
1.01	-0.11661399663663	0.06419685646310548	0.7902618654782652	0.9112891460812639	-0.2322259464933795	-0.1010984061901016	-0.4359599907153431	1.038813461861968	1.03881346186208	-0.03038145237412425	0.174528340812408	0.4361332543149482	0.1114213348886372	0.005135921302736137	0.007129126189912948	0.02284962977003527	-0.07158787829876119	0.003834890260062776	-0.01578956643872754	0.02312616727565175	-0.08925125010251296	-0.08925125010251381	0.005271107723962837	-0.0001359449539212868	-0.02564706288966555	-0.003380995264315735	-0.1557470947764928	0.02873441047159721	0.01352003289807011	-0.4183942078705943	-0.06245035994775987	0.004815351479740502	0.2170914510417192	-9.537170390542661	-66.5454169248415	-9.093109591062081	1.375999652151376	18.91679268197076	-761.0715287961476	55.53752481106041	0.6121269108721985	0.04475444237832173	1.027956390406712	-3.231164041016668	0.1155951599399215	-0.4231075823116627	0.787465402032563	-4.002446642269052	-4.002446642269362	0.5969308158359931	0.001128765244222155	-1.568416475302495	-0.4227403544927871	1.893211566256018e-09	-9.342597599140016e-10	-2.32094867156672e-09	1.357169680437741e-08	4.326913780090848e-09	-6.990804302730232e-09	-3.166189552528497e-09
1.02	-0.1165321478086236	0.06427047259989659	0.7905417867636443	0.9104115716285456	-0.2321817584825306	-0.1012776086535214	-0.4356886418447999	1.037720541387211	1.037720541386896	-0.03029904612729134	0.1745269838143485	0.4357983496542872	0.1113664975508305	0.01119405452402551	0.007601902402269505	0.03313120688852701	-0.1038996690594672	0.005000186041212886	-0.02004902017642375	0.03124574729022623	-0.1293443951324809	-0.1293443951324859	0.01122034768017275	-0.0001329282983784052	-0.04133452588364912	-0.007590443080120184	-0.1561813012123597	0.02876010378247542	0.01350442616337208	-0.4177508711968762	-0.06310887382889817	0.004910277604609347	0.2175203408735903	-9.609809218805808	-66.76570171376353	-9.06191364658887	1.338426883466519	18.98411661342531	-761.3862378813933	55.58686624003042	0.6051219825141423	0.04998187981369362	1.02958928532766	-3.239412837177427	0.1191519642717918	-0.4321962611690485	0.8303010633395829	-4.019584379671893	-4.019584379671906	0.5878490716403071	-0.002115385965729933	-1.569208487717891	-0.4161650092088362	2.776967022672729e-09	-5.079220901156757e-10	-5.614405661665163e-09	2.242468573939745e-08	4.958393801313121e-09	-8.461996939486729e-09	-8.367806004630693e-09
1.03	-0.1163908552760775	0.06434907663907544	0.7909243742052887	0.9092116896468512	-0.2321259894383187	-0.101499398331478	-0.4353330490836743	1.036226449401261	1.036226449401437	-0.03015692283731565	0.1745257277387147	0.4353066240905989	0.1112694973916116	0.01702814849286155	0.00812934473456866	0.04337794375609989	-0.1360480677551174	0.006151317584028492	-0.02431169191044823	0.03997607012975998	-0.1694747847374516	-0.1694747847374577	0.01720689743178775	-0.0001162049648923722	-0.0570040565215514	-0.01180880097943933	-0.1564331264126134	0.02872635574051548	0.01348911354653746	-0.4169057760074877	-0.06351665891750263	0.004952522998984259	0.2177877466475665	-9.709173054336755	-66.88533980116416	-9.037121142658265	1.303184743509627	18.97676892203924	-761.3337359148591	55.58728993992325	0.5671084256570925	0.05569243053709758	1.020963240888645	-3.198253860921955	0.1127528520266591	-0.4237150775467571	0.9098876733756103	-4.00988439050644	-4.009884390506311	0.6044451625661765	0.003883911974731453	-1.564845933998943	-0.4245506136496461	3.661769412161055e-09	-8.61370729626352e-11	-8.929735681882106e-09	3.13057531715509e-08	5.604278837598733e-09	-9.925404225428584e-09	-1.361006906710258e-08
1.04	-0.1161923107395238	0.06443326850569889	0.7914091784862907	0.9076911835831669	-0.232058777258113	-0.1017638972163965	-0.4348870551383337	1.034331029891349	1.034331029891997	-0.02995485660266234	0.1745247024401796	0.4346583991040945	0.1111303377667324	0.02264445532522526	0.008719467891186664	0.05357457476019192	-0.1680244854572835	0.007288813236439897	-0.02859086156555913	0.04932598413385492	-0.2096098999262941	-0.2096098999263015	0.02320893660917008	-8.677287264364959e-05	-0.0726344104463499	-0.01602233621300918	-0.1566849516129089	0.02869260769857064	0.01347380092936108	-0.41606068081813	-0.06392444400610911	0.004994768393392025	0.2180551524215015	-9.835286788632832	-67.01500973438382	-9.007809013559184	1.260053279199247	18.98183161431575	-761.4497974537627	55.61818527438832	0.5615645552195123	0.06251804467770496	1.019568112631485	-3.20501663848077	0.1164247861908765	-0.4354958453863841	0.9542192962517639	-4.02052949644618	-4.020529496446231	0.5909469567938476	0.0004263657869479128	-1.561373145096768	-0.415200476058971	4.420357476806257e-09	2.152359171305429e-10	-1.27249596464145e-08	3.862622048054033e-08	6.213262473718477e-09	-1.16329299259929e-08	-1.865114558283542e-08
1.05	-0.1159386213787672	0.06452366656201741	0.791995655465782	0.9058517804243533	-0.2319802592337433	-0.1020712340660597	-0.4343446375697922	1.032034318129504	1.032034318129622	-0.02969268480627961	0.1745239943943593	0.4338540738728107	0.1109490815626888	0.0280622534102745	0.009369781567186472	0.0637079414870001	-0.1998246410291953	0.008412233359456171	-0.03287492151726002	0.0592459755504036	-0.2497248106259239	-0.2497248106259225	0.02922969832647772	-5.680557192138815e-05	-0.08822348820069091	-0.02022704801775466	-0.1566634123774234	0.02853043225712212	0.01346152749470345	-0.4150388644116418	-0.06411142461955258	0.005020035365123434	0.2180594815199555	-9.988142015429217	-67.05099514503742	-8.96371142913465	1.207990135948755	18.95847248212132	-761.1621013660148	55.65167642012422	0.5272139945463459	0.06773512931900123	1.008286318115682	-3.162788480236856	0.1099238978007715	-0.4246169766159685	1.02415596062331	-4.005826626794056	-4.005826626792421	0.608280560491679	0.003994285071607193	-1.556602933571212	-0.4228250965639374	5.175001343800114e-09	5.128460313781009e-10	-1.653518029670674e-08	4.58979190356809e-08	6.821092941083037e-09	-1.334808432701418e-08	-2.368593501898265e-08
1.06	-0.1156316887252782	0.06462085717514922	0.7926830791856219	0.9036953210170852	-0.2318905823536359	-0.1024213626965678	-0.433700366707835	1.029336686306658	1.029336686306222	-0.02937017743642973	0.1745235284960807	0.4328940722953883	0.1107258345278258	0.03329311387124936	0.01007797925384712	0.07376392283008359	-0.231435735148715	0.009520584380210593	-0.03714921773110243	0.06969664281757615	-0.2897939121284618	-0.289793912128451	0.03527605129548662	-3.834335692587089e-05	-0.1037696796737648	-0.02442050237776673	-0.156641873141961	0.02836825681568795	0.01344925405965505	-0.414017048005183	-0.06429840523299868	0.005045302336887187	0.2180638106183856	-10.16772316592487	-67.09706308220505	-8.915224478812133	1.148197085747017	18.9469056656481	-761.0438076265523	55.71553177181703	0.5241770304044518	0.07409484681012478	1.004091035886553	-3.167204348002496	0.1134109657384375	-0.4335430978147137	1.060354466376484	-4.011367657027759	-4.011367657027649	0.5960652071341899	-0.001874651358285816	-1.552795888842963	-0.4129489871122743	5.923361694672792e-09	8.695404311512974e-10	-1.986895927698404e-08	5.324297999986777e-08	7.32143791836722e-09	-1.477221153235232e-08	-2.849576241249941e-08
1.07	-0.1152733465498225	0.0647254207825723	0.7934706269028219	0.9012237347799974	-0.2317899111316598	-0.1028142117458551	-0.4329490261564356	1.026238688455395	1.026238688454599	-0.02898710153260007	0.1745232090602517	0.4317788463223382	0.1104607095030435	0.03834582954256549	0.01084456889055993	0.08372761679072545	-0.2628439880781306	0.01060977711170668	-0.04142049420181012	0.08065330872606961	-0.3297881868193412	-0.3297881868193356	0.0413419726815086	-2.613346012280524e-05	-0.1192660971172145	-0.02860264950515487	-0.1563702414832785	0.02815840777264329	0.01343748076406413	-0.4128090676702784	-0.06424372680007379	0.005006680418362683	0.2178292883454876	-10.37398523135451	-67.04599647916311	-8.881052187937156	1.094769917750712	18.8946579661858	-760.5272222016599	55.71686488292382	0.4913963819101071	0.07941659200675397	0.9898047472008838	-3.122006229036699	0.1061002187109283	-0.4238971789046281	1.125598842574894	-3.990838024195828	-3.990838024196434	0.6122799391955499	0.002690533928626703	-1.546651860583734	-0.4205659392453797	6.671387815964556e-09	1.229377612069475e-09	-2.317739561523925e-08	6.059194321985498e-08	7.816065582349253e-09	-1.618085856770731e-08	-3.32936237399188e-08
